<svg xmlns="http://www.w3.org/2000/svg" xmlns:xlink="http://www.w3.org/1999/xlink" width="500" zoomAndPan="magnify" viewBox="0 0 375 374.999991" height="500" preserveAspectRatio="xMidYMid meet" version="1.0"><path fill="#000000" d="M 97.066406 265.496094 C 96.519531 261.328125 95.246094 257.757812 93.203125 254.289062 C 91.292969 251.050781 89.917969 247.542969 87.660156 244.421875 C 81.40625 235.773438 74.09375 228.519531 63.941406 224.605469 C 61.929688 223.828125 62.226562 222.683594 63.464844 221.550781 C 73.242188 212.585938 84.882812 207.441406 97.789062 204.914062 C 108.578125 202.800781 119.550781 202.78125 130.460938 202.117188 C 132.765625 201.976562 135.113281 202.597656 137.441406 202.851562 C 138.765625 202.992188 140.097656 203.09375 142.195312 203.285156 C 139.8125 201.015625 137.484375 200.269531 135.304688 199.417969 C 124.003906 194.992188 112.273438 194.277344 100.390625 196.042969 C 94.34375 196.941406 89.25 199.980469 84.890625 204.324219 C 81.097656 208.097656 77.210938 207.929688 74.527344 202.609375 C 71.355469 196.3125 71.503906 189.789062 71.378906 183.199219 C 71.191406 173.351562 73.726562 163.890625 75.535156 154.304688 C 76.910156 147 75.417969 139.765625 73.058594 132.683594 C 69.175781 121.039062 63.351562 110.535156 55.519531 101.105469 C 49.992188 94.449219 45.875 86.703125 39.710938 80.535156 C 37.15625 77.976562 34.515625 75.496094 31.921875 72.976562 C 31.101562 72.175781 30.042969 71.46875 30.679688 69.855469 C 33.304688 69.875 34.9375 71.949219 36.992188 73.046875 C 47.277344 78.527344 55.824219 86.304688 64.148438 94.28125 C 68.371094 98.332031 72.210938 102.796875 75.175781 107.945312 C 76.28125 109.871094 78.1875 111.359375 79.175781 113.328125 C 83.296875 121.507812 85.539062 130.261719 86.78125 139.324219 C 88.695312 153.261719 85.417969 166.964844 85.121094 180.796875 C 85.105469 181.480469 85.023438 182.164062 85.039062 182.847656 C 85.160156 187.644531 86.101562 188.15625 90.667969 186.828125 C 96.574219 185.109375 102.550781 184.523438 108.820312 184.648438 C 119.253906 184.859375 129.257812 186.695312 138.859375 190.40625 C 148.375 194.085938 157.429688 198.921875 164.835938 206.054688 C 168.953125 210.019531 172.375 214.757812 175.457031 219.648438 C 176.175781 220.789062 176.515625 222.109375 175.546875 223.191406 C 174.335938 224.550781 173.238281 223.28125 172.183594 222.710938 C 161.433594 216.910156 150.128906 212.8125 137.886719 211.675781 C 129.121094 210.859375 120.363281 211.191406 111.65625 212.355469 C 107.570312 212.902344 103.691406 214.542969 100.042969 216.351562 C 95.257812 218.722656 90.679688 221.558594 86.015625 225.074219 C 88.539062 227.625 90.679688 230.335938 93.335938 232.367188 C 101.667969 238.738281 107.246094 247.128906 111.421875 256.515625 C 113.757812 261.773438 116.449219 266.929688 117.710938 272.613281 C 118.429688 275.847656 118.921875 279.136719 119.640625 282.375 C 120.5625 286.53125 122.523438 290.148438 125.507812 293.328125 C 131.929688 286 137.742188 278.488281 144.882812 272.199219 C 155.34375 262.988281 167.242188 256.859375 181.28125 255.472656 C 183.488281 255.253906 184.175781 254.449219 183.675781 252.265625 C 182.730469 248.152344 182.953125 243.933594 183.125 239.769531 C 183.246094 236.8125 182.628906 233.933594 182.695312 231.003906 C 182.699219 230.71875 182.722656 230.269531 182.558594 230.160156 C 178.890625 227.691406 182.066406 226.332031 183.308594 224.425781 C 185.800781 220.601562 187.167969 216.28125 187.417969 211.730469 C 187.902344 202.925781 187.394531 194.203125 185.554688 185.519531 C 184.265625 179.445312 185.398438 173.230469 185.660156 167.082031 C 185.875 161.984375 185.304688 156.941406 184.726562 151.886719 C 184.496094 149.835938 183.535156 149.265625 181.660156 149.335938 C 171.847656 149.707031 162.75 146.53125 153.761719 143.246094 C 147.253906 140.875 141.691406 136.640625 136.953125 131.707031 C 129.507812 123.960938 122.054688 116.195312 115.652344 107.484375 C 113.535156 104.605469 111.039062 101.929688 108.757812 99.128906 C 103.132812 92.222656 94.902344 90.359375 87.027344 87.757812 C 83.046875 86.445312 78.9375 86.554688 74.84375 86.308594 C 73.773438 86.246094 72.03125 86.636719 72.011719 85.042969 C 71.992188 83.382812 73.726562 83.800781 74.800781 83.800781 C 83.09375 83.785156 91.414062 83.28125 99.605469 85.234375 C 101.925781 85.789062 103.527344 84.070312 104.972656 82.78125 C 112.285156 76.246094 120.707031 71.167969 128.199219 64.882812 C 128.910156 64.285156 129.546875 63.332031 131.320312 64.464844 C 123.042969 72.070312 115.617188 80.269531 107.214844 87.375 C 107.671875 88.808594 108.859375 88.738281 109.683594 89.019531 C 118.496094 92.046875 124.921875 97.976562 130.046875 105.535156 C 130.648438 106.421875 131.179688 107.433594 131.976562 108.113281 C 139.570312 114.5625 144.96875 123.300781 153.503906 128.765625 C 158.738281 132.113281 164.214844 134.769531 170.480469 135.625 C 174.707031 136.203125 178.785156 137.964844 183.425781 137.074219 C 183.925781 133.574219 183 130.203125 182.234375 126.820312 C 180.890625 120.921875 179.777344 114.953125 176.75 109.570312 C 175.941406 108.128906 175.308594 106.847656 173.351562 106.933594 C 172.605469 106.964844 171.761719 106.707031 171.097656 106.339844 C 168.714844 105.015625 165.945312 103.707031 165.796875 100.625 C 165.632812 97.175781 167.972656 94.792969 170.734375 93.148438 C 173.417969 91.550781 176.996094 93.472656 179.023438 97.210938 C 181.761719 102.269531 183.042969 107.816406 184.273438 113.34375 C 185.90625 120.675781 188.839844 127.707031 189.25 135.320312 C 189.363281 137.410156 190.6875 137.949219 192.6875 137.910156 C 194.667969 137.871094 194.964844 136.929688 195.292969 135.25 C 197.382812 124.515625 199.296875 113.71875 203.046875 103.398438 C 204.636719 99.023438 206.066406 94.390625 211.214844 92.582031 C 212.390625 92.167969 213.492188 91.878906 214.597656 92.464844 C 217.414062 93.953125 217.582031 96.714844 217.449219 99.355469 C 217.324219 101.882812 216.984375 105.15625 213.84375 105.289062 C 207.796875 105.550781 206.390625 109.484375 204.984375 114.21875 C 202.734375 121.800781 200.246094 129.292969 199.96875 137.683594 C 208.957031 136.492188 217.796875 135.59375 225.480469 130.167969 C 231.039062 126.246094 235.929688 121.601562 240.582031 116.734375 C 247.742188 109.238281 256.253906 103.566406 264.753906 97.828125 C 265.78125 97.132812 267.113281 96.832031 267.902344 95.414062 C 264.722656 90.652344 259.605469 87.496094 256.445312 82.726562 C 253.40625 78.144531 248.433594 75.042969 245.753906 69.378906 C 248.359375 69.796875 249.574219 70.917969 250.714844 72.109375 C 257.6875 79.390625 266.101562 85.089844 273.019531 92.425781 C 274.347656 93.835938 275.554688 92.777344 276.777344 92.414062 C 283.671875 90.367188 290.585938 88.925781 297.8125 90.738281 C 299.570312 91.179688 300.988281 92.1875 302.59375 92.863281 C 303.304688 93.164062 304.027344 93.730469 303.679688 94.675781 C 303.335938 95.617188 302.464844 95.46875 301.671875 95.402344 C 297.445312 95.039062 293.257812 95.625 289.109375 96.207031 C 278.105469 97.757812 269.777344 104.082031 262.082031 111.589844 C 256.953125 116.59375 253.121094 122.71875 247.839844 127.570312 C 241.632812 133.277344 235.046875 138.613281 228.003906 143.125 C 221.3125 147.414062 213.394531 149.175781 205.339844 149.292969 C 202.492188 149.335938 201.308594 149.988281 201.019531 153.164062 C 200.007812 164.191406 200.355469 175.234375 200.082031 186.265625 C 200.042969 187.824219 199.898438 189.386719 199.714844 190.941406 C 198.585938 200.472656 199.613281 209.796875 202.371094 218.957031 C 202.453125 219.238281 202.515625 219.566406 202.703125 219.765625 C 207.296875 224.621094 205.511719 230.535156 205.167969 236.070312 C 204.800781 241.929688 204.824219 247.773438 204.640625 253.808594 C 228.601562 257.953125 246.753906 271.691406 263.171875 288.578125 C 268.160156 277.324219 275.640625 266.875 278.242188 254.152344 C 280.339844 243.894531 284.765625 234.535156 290.925781 226.042969 C 293.007812 223.179688 295.625 220.816406 298.328125 218.546875 C 299.140625 217.863281 300.109375 217.335938 300.78125 215.816406 C 288.585938 207.511719 274.734375 206.078125 260.507812 205.726562 C 245.773438 205.359375 233.136719 210.78125 221.730469 219.339844 C 220.316406 218.15625 220.925781 217.292969 221.421875 216.457031 C 229.507812 202.902344 240.585938 192.511719 254.890625 185.859375 C 264.3125 181.476562 274.367188 179.222656 284.824219 180.292969 C 288.609375 180.679688 292.414062 180.816406 296.1875 181.296875 C 299.285156 181.6875 300.132812 180.851562 300.324219 177.582031 C 300.652344 172.027344 300.21875 166.53125 298.699219 161.164062 C 293.601562 143.171875 294.351562 125.726562 302.917969 108.773438 C 305.367188 103.925781 306.757812 98.601562 309.585938 93.835938 C 312.34375 89.183594 316.011719 85.53125 319.9375 82.007812 C 321.609375 80.503906 323.457031 79.125 324.835938 77.382812 C 331.042969 69.539062 339.894531 65.375 348.140625 60.367188 C 349.125 59.773438 350.40625 58.886719 351.570312 60.824219 C 346.617188 64.671875 343.574219 70.238281 339.15625 74.628906 C 332.179688 81.5625 326.457031 89.53125 321.300781 97.828125 C 317.851562 103.382812 316.195312 109.871094 313.941406 116.019531 C 312.292969 120.519531 310.90625 125.160156 308.59375 129.347656 C 306.175781 133.722656 306.539062 138.214844 307.140625 142.753906 C 308.183594 150.667969 308.941406 158.675781 310.769531 166.421875 C 312.40625 173.355469 312.917969 180.285156 313.210938 187.308594 C 313.382812 191.441406 312.554688 195.230469 309.769531 198.476562 C 308.3125 200.175781 306.671875 200.753906 304.566406 199.941406 C 302.925781 199.308594 301.308594 198.679688 299.71875 197.890625 C 292.152344 194.132812 284.324219 191.121094 275.667969 191.757812 C 270.601562 192.132812 265.605469 193.113281 260.566406 194.835938 C 267.941406 195.039062 275.164062 194.699219 282.355469 195.464844 C 293.417969 196.644531 303.734375 199.992188 313.113281 206.023438 C 316.304688 208.078125 319.742188 209.820312 322.246094 212.832031 C 324.554688 215.605469 324.4375 215.988281 321.429688 217.855469 C 317.863281 220.070312 314.34375 222.375 310.960938 224.855469 C 307.148438 227.65625 304.597656 231.519531 301.820312 235.351562 C 296.304688 242.964844 293.191406 251.503906 290.316406 260.210938 C 288.484375 265.769531 287.265625 271.46875 286.984375 277.402344 C 286.765625 281.953125 285.890625 286.488281 285.097656 290.996094 C 284.132812 296.476562 280.117188 299.972656 276.304688 303.46875 C 274.007812 305.570312 271.46875 307.457031 268.648438 308.871094 C 264.09375 311.148438 260.152344 314.097656 257.632812 318.664062 C 257.402344 319.082031 257.035156 319.429688 256.691406 319.769531 C 256.574219 319.886719 256.332031 319.882812 255.871094 320.007812 C 254.179688 318.371094 253.894531 316.011719 253.265625 313.828125 C 253.050781 313.085938 253.183594 312.195312 252.835938 311.546875 C 249.105469 304.605469 246.628906 296.878906 241.605469 290.777344 C 235.53125 283.394531 228.714844 276.75 220.617188 271.296875 C 215.265625 267.695312 209.339844 266.144531 203.710938 263.605469 C 202.289062 264.625 202.679688 266.101562 202.453125 267.398438 C 200.890625 276.339844 198.710938 285.171875 197.859375 294.246094 C 197.699219 295.980469 197.886719 298.871094 195.386719 298.964844 C 192.574219 299.070312 193.375 296.046875 192.988281 294.398438 C 191.167969 286.601562 189.609375 278.742188 187.929688 270.914062 C 187.644531 269.59375 187.457031 268.207031 186.449219 267.144531 C 185.253906 266.882812 184.375 267.605469 183.460938 268.117188 C 176.472656 272.035156 169.441406 275.875 162.542969 279.945312 C 156.214844 283.675781 152.003906 289.53125 148.128906 295.527344 C 143.355469 302.914062 139.421875 310.796875 135.226562 318.519531 C 134.007812 320.773438 132.710938 322.964844 133.433594 325.707031 C 133.585938 326.292969 133.289062 326.859375 132.515625 327.273438 C 130.625 326.1875 129.605469 324.117188 128.902344 322.304688 C 127.199219 317.910156 124.003906 314.988281 120.167969 312.886719 C 112.785156 308.847656 108.296875 302.449219 106.285156 294.753906 C 104.121094 286.488281 100.507812 278.773438 98.308594 270.566406 C 97.878906 268.964844 97.503906 267.347656 97.066406 265.496094 M 185.214844 143.378906 C 193.214844 144.644531 205.085938 144.039062 206.390625 142.023438 C 204.027344 142.136719 201.84375 142.242188 199.65625 142.34375 C 194.683594 142.570312 189.710938 142.785156 184.734375 143.019531 C 184.4375 143.035156 184.398438 143.199219 184.621094 143.316406 C 184.699219 143.355469 184.808594 143.347656 185.214844 143.378906 M 184.371094 145.648438 C 183.964844 146.644531 184.710938 146.542969 185.265625 146.550781 C 191.511719 146.652344 197.757812 146.753906 204.003906 146.8125 C 204.71875 146.820312 205.628906 147.023438 206.15625 145.300781 C 198.851562 145.609375 191.742188 146.335938 184.371094 145.648438 M 192.882812 140.039062 C 189.789062 140.039062 186.695312 140.039062 183.601562 140.039062 C 183.617188 140.285156 183.628906 140.527344 183.644531 140.773438 C 186.792969 140.773438 189.941406 140.789062 193.089844 140.757812 C 193.582031 140.75 193.792969 140.453125 192.882812 140.039062 M 191.855469 151.191406 C 192.054688 153.226562 192.253906 155.261719 192.453125 157.296875 C 192.738281 155.433594 193.019531 153.632812 193.394531 151.832031 C 193.703125 150.359375 193.589844 150.335938 191.855469 151.191406 M 199.765625 140.558594 C 201.777344 140.988281 203.722656 140.8125 205.578125 139.910156 C 203.46875 139.191406 201.492188 139.890625 199.765625 140.558594 Z M 199.765625 140.558594 " fill-opacity="1" fill-rule="nonzero"/></svg>